<?xml version="1.0" encoding="utf-8"?>
<!-- Generator: Adobe Illustrator 21.1.0, SVG Export Plug-In . SVG Version: 6.00 Build 0)  -->
<svg version="1.1" id="Layer_1" xmlns="http://www.w3.org/2000/svg" xmlns:xlink="http://www.w3.org/1999/xlink" x="0px" y="0px"
	 viewBox="0 0 422.2 513.5" style="enable-background:new 0 0 422.2 513.5;" xml:space="preserve">
<style type="text/css">
	.st0{fill:none;stroke:#000000;stroke-miterlimit:10;}
</style>
<title>contours_modified</title>
<g id="Layer_13">
	<g id="contours_contour_linestring_3">
		<path class="st0" d="M230.2,0c13.1,13.1,20.3-0.9,36,3c11.5,2.9,14.2,8.8,26.5,16.5c19.8,12.5,48.9,14.9,74.5,3.5
			c12.6-5.6,19.7-13.1,26-23"/>
	</g>
</g>
<g id="Layer_12">
	<g id="contours_contour_linestring_4">
		<path class="st0" d="M400.2,0c-9,19.3-1.6,41.1,15,55"/>
	</g>
</g>
<g id="Layer_11">
	<g id="contours_contour_linestring_5">
		<path class="st0" d="M250.2,142c-3.6-14.1-30.1-31.3-21-39c14.5-12.3,53.7,15.5,67,19C279.5,126.5,265.7,133.9,250.2,142"/>
	</g>
</g>
<g id="Layer_10">
	<g id="contours_contour_linestring_8">
		<path class="st0" d="M300.2,308c-3.3-1.2-24.5-23.5-24.5-23.5c-0.1-5.4,16.7-16.2,20.5-33.5c7.4-33.8-1.6-56.2,32.5-69.5
			c66.1-25.7,109.8,49.3,55,87C358.1,286.1,335.8,305.6,300.2,308"/>
	</g>
</g>
<g id="Layer_9">
	<g id="contours_contour_linestring_9">
		<path class="st0" d="M419.2,284c-14.9,22.6-53.4,33.4-80,37c-39.7,5.3-47.5,16.3-65-11c-18.2-28.5-10.9-27.8-7.5-67.5
			c4-46.7-3.2-71.2-30.5-99c-7.2-7.4-17.2-16.4-25.5-21c-12.2-6.8-24-1.7-38.5-8.5c11.6-11.5,7.7-28,22-35
			c21.5-10.6,61.4,8.9,78.2,14c23.7,7.2,70-1.9,82.2,10.5c15.1,15.3,2.2,29.7,21.5,45.5c14.5,11.8,32.2,11,41,27"/>
	</g>
</g>
<g id="Layer_8">
	<g id="contours_contour_linestring_10">
		<path class="st0" d="M420.2,327c-28.6-1.8-35.2,28.7-71,26c-15.7-1.2-31.1-10.8-43-10c-16.1,1-19.5,16-37,1
			c-14.6-12.5-3.8-43.4-34-30c0.3-1,0-1.3-1-1c19.7-26.8,15.2-60.2,10-91c-4.2-24.5-5.1-62.8-33.5-84c-16.4-12.3-48.1-21.4-72.5-14
			c0.2-0.9-0.1-1.6-1-2c23.4-21.2,39.1-72.7,62-75c12.3-1.2,53.2,13.2,64,18c14,6.2,20.9,21.5,43,23c24.7,1.6,54.5-21.3,69-13
			c-13.9,24.3,13.4,65.6,42,62"/>
	</g>
</g>
<g id="Layer_7">
	<g id="contours_contour_linestring_11">
		<path class="st0" d="M420.2,360c-12.6,2-22.4,8.5-30,18c-13.9-18.8-24.5,6.8-39,7c-7.6,0.1-21.6-12.6-28-14.5
			c-13.3-3.9-17.6-1.5-32,0.5c-20.5,2.8-18.1-0.5-38-3c16-30.1-28.2-33.8-25-53c-9.7,3.7-13.2-0.3-22,1c9.4-14.1,23-15.4,25-35.5
			c1.6-15.8-6.7-40.7-7-60c-0.7-38.2-15-61.3-52-72.5c-18-5.4-60.1-6.4-57-25c28-22,52.9-105.2,87.5-96.5
			c11.1,2.8,22.7,14.1,33.5,17c12,3.2,27.1,2,35,5.5c6,2.7,6.6,8.5,11,11c30.4,17.5,41.2,3.3,74,0c47.9-4.8,17.6,43.3,60,52"/>
	</g>
</g>
<g id="Layer_6">
	<g id="contours_contour_linestring_12">
		<path class="st0" d="M421.2,386c-0.2,2.9-5.3,6.5-3,15c-12.4-7.6-20.1-3-34,1c-10.4-18-13.9-2.5-23-1c-17.8,2.9-15.7,6.3-32-1
			c-12-5.4-8-12.8-28-11.5c-12.6,0.9-16.1,10.8-27,10c-15.6-1.1-21.9-14.1-42-9.5c24.4-37.4-30.1-71.3-61-46
			c-18.5-26.8,21.9-23.9,31-45c3.4-8-9.2-70.9-17-76c-9.1-6-30.1,2.9-38,8c-9.5-20.1,20.1-44.3-12-66.5c-31-21.4-46.3,2.4-45-43.5
			c16.5-15.6,83.5-93,67-109c17.8,2,35.6-9.7,49-6c11.4,3.1,19.7,20.1,29,23c12.8,3.9,33.1-2.4,48,3.5c9,3.6,12.1,13,22,15.5
			c15.3,3.8,28.8,9.4,40-8c15.5,14.8,30.4-7,47.5,9.5c9.9,9.5,12.9,30.4,23.5,39.5"/>
	</g>
</g>
<g id="Layer_5">
	<g id="contours_contour_linestring_13">
		<path class="st0" d="M422.2,421c-11.6-3-40.3-7.6-50-3c-15.2,7.3-13.1,27.5-33,23c-10.7-2.4-23.3-26.6-37-27
			c-11-0.3-17.1,10.8-24,11c-12.1,0.3-7.2-3.4-18-7c-27.6-9.2-36.5-6-63,2c5.1-15.3,34.3-38.1,15-59c-14.2-15.5-53.5-1.5-67,1
			c-8.2-14.7,3.2-49,5-65c2.3-19.8,3.2-29.7-6-49c-24.5,17.4-27,5.5-48,0c8.7-6.2,30.9-28.6,31-37c0.1-14.5-23-32.2-37-26
			c3.3-10.9-6.1-18.6-20-21c-4.3-13.3,1.7-32.4-1-49c22.3-17.2,80.3-87.1,68-111c5.5-1,15.8-4.3,20-4"/>
	</g>
</g>
<g id="Layer_4">
	<g id="contours_contour_linestring_15">
		<path class="st0" d="M422.2,445c-34.2-12.4-30.6,3.2-48.5,18.5c-17.5,15-36.9,3.4-53.5,15.5c-2.7-41.3-27.1-24.2-49.5-25.5
			c-22.2-1.3-34.2-22.7-63-17c-18.2,3.6-16,17.9-39.5,5.5c33.9-41.5,14.6-78.2-42-57c-6.3-10,0.5-4.5-12-11
			c8.5-19.5,18.2-25.8,11-46c-2.7-7.6-11-14.1-14-21c-0.3-0.6-1.1-26.2-7-31c-7.6-6.3-50.5-6.8-40-30c11.1-24.6,43.4-2.6,22-42
			c-11.8-21.8-31.5-22.4-56-25c18.4-25.2,8.9-55.5,15-71c2.6-6.5,19.6-20.3,25-33c9.4-22,10.1-20.1,24-36c10.7-12.2,15.7-23.6,24-39
			"/>
	</g>
</g>
<g id="Layer_3">
	<g id="contours_contour_linestring_17">
		<path class="st0" d="M422.2,470c-16.2,6.2-33.5,22.2-36,41c-31.3-12.4-64.9,0.7-93,0c14.7-24.8-50.6-45.1-67-47
			c-23.4-2.8-48.4,3.7-70,5c-28.9,1.8-2.7,5.2-5-24c-2.6-32.9-25.1-17.1-47-25c4.8-35-50.5-140.8-75-129c15.3-7.7,9.4-34.7,8.5-52
			c0-0.3,0.6-25.3,0.5-26c-5.3-25.9-14.9-13.1-23-29c-6.9-13.5,4.5-16.3,3-34c-0.8-9.2-13.6-28.6-17-35c27.5-7.1,37.5-66.4,39-92
			c10,5.9,32.1-12.4,42-22"/>
	</g>
</g>
</svg>
